# xmcd
#
# Track frame offsets:
#	150
#	17045
#	31924
#	47546
#	59180
#	73978
#	101413
#	112046
#	132160
#	146739
#
# Disc length: 2272 seconds
#
# Revision: 0
# Processed by: cddbd v1.5.2PL0 Copyright (c) Steve Scherf et al.
# Submitted via: dBpowerAMP V4.0
#
DISCID=9408de0a
DTITLE=Swiftys, the - Ridin' High
DYEAR=2008
DGENRE=Roots rock
TTITLE0=Ridin' HIgh
TTITLE1=The Gypsy
TTITLE2=Miss Those Days
TTITLE3=You Belong
TTITLE4=Bottle of Wine
TTITLE5=Lost in the Ruins
TTITLE6=Empty Bottle
TTITLE7=@6 Oz of Gin
TTITLE8=Pass the Misery
TTITLE9=Bad Luck Slim
EXTD=
EXTT0=
EXTT1=
EXTT2=
EXTT3=
EXTT4=
EXTT5=
EXTT6=
EXTT7=
EXTT8=
EXTT9=
PLAYORDER=
